<svg xmlns="http://www.w3.org/2000/svg" viewBox="0 0 720 980">
  <defs>
    <linearGradient id="screen" x1="0" x2="0" y1="0" y2="1">
      <stop offset="0" stop-color="#d6e97f"/>
      <stop offset=".48" stop-color="#18a5b5"/>
      <stop offset="1" stop-color="#06242f"/>
    </linearGradient>
    <radialGradient id="skin" cx=".5" cy=".3" r=".8">
      <stop offset="0" stop-color="#4a2c21"/>
      <stop offset="1" stop-color="#0d0908"/>
    </radialGradient>
  </defs>
  <rect width="720" height="980" rx="36" fill="#c9c9c9"/>
  <path d="M456 406c88 40 133 142 134 282 0 178-65 266-196 263-100-3-167-60-205-172-31-90-26-197 14-280 49-104 133-135 253-93z" fill="url(#skin)" opacity=".96"/>
  <rect x="266" y="80" width="242" height="650" rx="42" fill="#151515" transform="rotate(-8 387 405)"/>
  <rect x="283" y="103" width="209" height="602" rx="33" fill="url(#screen)" transform="rotate(-8 387 405)"/>
  <rect x="357" y="105" width="76" height="17" rx="9" fill="#050505" transform="rotate(-8 395 113)"/>
  <path d="M196 563c37-56 94-73 149-43 67 37 115 138 96 202-18 64-68 80-131 45-88-48-166-125-114-204z" fill="url(#skin)"/>
</svg>
