<svg xmlns="http://www.w3.org/2000/svg" viewBox="0 0 820 980">
  <defs>
    <linearGradient id="screen" x1="0" x2="0" y1="0" y2="1">
      <stop offset="0" stop-color="#dce682"/>
      <stop offset=".52" stop-color="#0598a8"/>
      <stop offset="1" stop-color="#052f41"/>
    </linearGradient>
    <linearGradient id="hand" x1="0" x2="1">
      <stop offset="0" stop-color="#0d0807"/>
      <stop offset=".55" stop-color="#44281d"/>
      <stop offset="1" stop-color="#120b09"/>
    </linearGradient>
  </defs>
  <rect width="820" height="980" rx="36" fill="#cfcfcf"/>
  <rect x="160" y="174" width="500" height="330" rx="24" fill="#0b0b0b"/>
  <rect x="181" y="198" width="458" height="282" rx="8" fill="url(#screen)"/>
  <path d="M89 597c54-92 118-116 191-67 50 34 88 89 112 166 17 57 2 97-43 119-70 34-151-4-230-114-29-41-39-75-30-104z" fill="url(#hand)"/>
  <path d="M618 537c62 8 100 57 112 148 11 89-7 143-55 164-50 21-86-4-107-76-33-115-16-226 50-236z" fill="url(#hand)"/>
</svg>
